<?xml version="1.0" standalone="no"?>
<!DOCTYPE svg PUBLIC "-//W3C//DTD SVG 20010904//EN"
 "http://www.w3.org/TR/2001/REC-SVG-20010904/DTD/svg10.dtd">
<svg version="1.0" xmlns="http://www.w3.org/2000/svg"
 width="32.000000pt" height="32.000000pt" viewBox="0 0 32.000000 32.000000"
 preserveAspectRatio="xMidYMid meet">

<g transform="translate(0.000000,32.000000) scale(0.100000,-0.100000)"
fill="#000000" stroke="none">
<path d="M80 303 c-45 -24 -82 -78 -78 -118 3 -27 6 -30 33 -28 91 6 161 16
170 24 5 5 22 9 38 9 25 0 28 3 22 23 -26 85 -112 127 -185 90z"/>
<path d="M200 150 c-11 -11 -20 -30 -20 -42 0 -22 4 -23 70 -23 61 0 70 2 70
18 0 26 -45 67 -75 67 -14 0 -34 -9 -45 -20z"/>
<path d="M87 143 c-4 -3 -7 -30 -7 -59 0 -46 3 -56 25 -70 21 -14 31 -15 51
-6 33 15 41 40 19 56 -13 9 -16 22 -13 49 4 37 4 37 -32 37 -20 0 -40 -3 -43
-7z"/>
<path d="M220 42 c0 -34 24 -49 47 -31 23 20 12 54 -19 57 -25 3 -28 0 -28
-26z"/>
</g>
</svg>
